<svg xmlns="http://www.w3.org/2000/svg" id="Layer_1" version="1.1" viewBox="0 0 500 500">
  <g>
    <g>
      <path fill="#ffa776" d="M178.12,167.79l8.9,28.37s-18.43,29.61-19.46,29.82-25.05-9.11-25.05-10.35-6.63-26.71-6.63-26.71l-.11-18.97,42.35-2.15Z"/>
      <g>
        <path fill="#5d56d5" d="M235.34,185.32s11.62,7.66,16.01,40.31c4.59,34.12,22.45,84.92,22.45,84.92l-28.98,22.32-30.87-86.89,3.97-48.97,17.43-11.69Z"/>
        <polygon fill="#2e2c3f" points="235.06 340.2 251.06 412.59 125.54 411.61 120.64 328.38 235.06 340.2"/>
        <path fill="#5d56d5" d="M185.23,175.18s28.85.76,50.11,10.15c0,0,1.6,20.89-3.04,38.1-4.63,17.21-3.09,39.73-2.76,64.88.33,25.15,5.52,51.9,5.52,51.9,0,0-76.91,16.76-110.99,4.18,0,0-3.97-78.75-12.9-100.92-8.93-22.17-19.03-36.84-19.03-36.84,0,0,9.17-9.78,40.22-24.69,0,0,16.01,17.53,22.34,22.28.85.64,6.24,12.09,7.76,12.99,0,0,4.49-13.87,6.07-15.39,3.08-2.95,17.91-13.74,16.7-26.64Z"/>
        <path fill="#5d56d5" d="M92.13,206.63s-10.31,10.28-7.8,38.97c2.74,31.33,1.17,47.27,4.08,58.18,2.91,10.92,43.74,59.12,43.74,59.12l20.74-16.74s-29.02-49.61-33.15-56.84c0,0-.69-30.84-4.33-48.31,0,0-8.37-32.38-23.29-34.38Z"/>
        <path fill="none" stroke="#2e2c3f" stroke-linecap="round" stroke-linejoin="round" stroke-width=".57" d="M152.89,346.16s-28.05-52.84-33.15-56.84c0,0,.56-32.37-3.82-57.04"/>
        <path fill="none" stroke="#2e2c3f" stroke-linecap="round" stroke-linejoin="round" stroke-width=".57" d="M232.38,212.31c.78,9.66-5.48,17.49-2.84,75.99"/>
      </g>
      <path fill="#5d56d5" d="M154.7,204.22s-9.53,1.87-10.09,14.33c0,0-20.21-26.9-18.29-35.23.35-1.5,2.92-3.31,4.14-4.24,1.02-.78,4.66-3.21,4.66-3.21.55,4.19,8.87,21.88,19.58,28.36Z"/>
      <path fill="none" stroke="#2e2c3f" stroke-linecap="round" stroke-linejoin="round" stroke-width=".57" d="M154.7,204.22s-9.53,1.87-10.09,14.33c0,0-20.21-26.9-18.29-35.23"/>
      <path fill="#5d56d5" d="M178.42,169.71s-.74,25.24-9.89,32.11c0,0,2.62,1.45,5.94,5.31,3.19,3.72,3.45,9,3.45,9,0,0,14.6-31.15,11.58-41.36-.43-1.45-11.08-5.06-11.08-5.06Z"/>
      <path fill="none" stroke="#2e2c3f" stroke-linecap="round" stroke-linejoin="round" stroke-width=".57" d="M168.52,201.82s2.62,1.45,5.94,5.31c3.19,3.72,3.45,9,3.45,9,0,0,14.6-31.15,11.58-41.36"/>
      <g>
        <path fill="#ffa776" d="M187.93,145.54c-.27,27.71-20.66,43.93-32.32,43.93-12.88,0-31.74-16.83-31.47-44.54.27-27.71,1.28-41.47,32.12-41.17,31.9.31,31.94,14.07,31.68,41.78Z"/>
        <path fill="none" stroke="#2e2c3f" stroke-linecap="round" stroke-linejoin="round" stroke-width=".57" d="M170.92,182.85c-5.32,4.33-10.93,6.62-15.31,6.62s-9.25-1.87-13.94-5.38"/>
        <path fill="#2e2c3f" d="M127.86,133.16s12.8,3.86,20.65-.06c7.85-3.92,24.01-14.89,24.01-14.89,0,0,9.12,3.58,10.85,15,1.73,11.43,3.89,17.04,3.89,17.04,0,0,6.7-23.65,4.85-35.31-1.85-11.66-17.31-13.39-17.31-13.39,0,0-11.66-12.12-26.08-11.2-14.43.92-25.85,11.66-26.78,23.31,0,0-3.35,1.62-2.89,8.66.46,7.04,5.54,27.01,5.54,27.01l3.28-16.18Z"/>
        <path fill="#2e2c3f" d="M127.93,117.15s.31,21.12-.82,31.74l-4.53-.04.54-13.16,4.81-18.53Z"/>
        <path fill="#2e2c3f" d="M182.82,122.53s.59,17.01,1.52,27.65l4.53.04-.29-13.17-5.76-14.53Z"/>
        <path fill="#ffa776" d="M187.74,140.28s10.34-4.88,9.85,1.26c-.48,6.14-4.42,11.47-11.19,15.85l.53-6.73.81-10.38Z"/>
        <path fill="#2e2c3f" d="M190.52,142.44s7.33-2.17-.98,8.65l.98-8.65Z"/>
        <path fill="#ffa776" d="M124.57,140.28s-10.34-4.88-9.85,1.26c.48,6.14,4.42,11.47,11.19,15.85l-.53-6.73-.81-10.38Z"/>
        <path fill="#2e2c3f" d="M121.79,142.44s-7.33-2.17.98,8.65l-.98-8.65Z"/>
        <g>
          <g>
            <ellipse cx="168.5" cy="152.1" fill="#2e2c3f" rx="2.97" ry="2.38" transform="rotate(-89.45 168.504 152.094)"/>
            <path fill="#fff" d="M159.46,173.66s-.1.31-.39.7c-.31.43-.83.95-1.64,1.27-.46.18-1.02.3-1.69.29-1.66-.02-2.68-.78-3.26-1.43-.05-.06-.11-.13-.15-.19-.34-.43-.48-.79-.48-.79l7.62.15Z"/>
            <path fill="#2e2c3f" d="M163.93,142.07s6.62-3.76,13.58.56l-13.58-.56Z"/>
          </g>
          <g>
            <ellipse cx="142.69" cy="151.85" fill="#2e2c3f" rx="2.97" ry="2.14" transform="rotate(-89.45 142.688 151.846)"/>
            <path fill="#2e2c3f" d="M147.08,141.91s-6.02-3.88-12.5.3l12.5-.3Z"/>
          </g>
          <path fill="none" stroke="#2e2c3f" stroke-miterlimit="10" stroke-width=".57" d="M154.08,159.82c-.65,1.69-4.11,4.65.44,6.23"/>
        </g>
      </g>
      <path fill="none" stroke="#2e2c3f" stroke-linecap="round" stroke-linejoin="round" stroke-width=".57" d="M162.45,217.21s11.46,100.08,13.94,127.82"/>
      <circle cx="157.62" cy="229.77" r="1.66" fill="#2e2c3f"/>
      <circle cx="161.07" cy="256" r="1.66" fill="#2e2c3f"/>
      <circle cx="163.83" cy="281.67" r="1.66" fill="#2e2c3f"/>
      <circle cx="169.35" cy="336.06" r="1.66" fill="#2e2c3f"/>
      <circle cx="166.59" cy="306.25" r="1.66" fill="#2e2c3f"/>
    </g>
    <path fill="none" stroke="#2e2c3f" stroke-linecap="round" stroke-linejoin="round" stroke-width=".57" d="M119.75,289.32s-7.39-6.71-14.83-2.01"/>
  </g>
  <g>
    <g>
      <path fill="#8f8b5e" d="M396.72,332.51c16.14-8.03,22.86-21.67,33.92-28.89,11.06-7.21,15.72-25.24,15.72-25.24h-.01c-6.52,6.67-30.71,2.24-39.9,15.63-3.2,4.68-5.55,10.82-7.19,16.8-3.06,11.18-3.22,22.03-2.54,21.7Z"/>
      <path fill="none" stroke="#2e2c3f" stroke-linecap="round" stroke-linejoin="round" stroke-width=".48" d="M427.93,293.63s-14.59,8.08-21.38,18.06c-6.79,9.98-15.69,30.18-21.86,79.6"/>
    </g>
    <g>
      <path fill="#8f8b5e" d="M436.94,259.17c-.78,3.63-2.56,7.34-6.07,10.56-11.95,10.96-25.81,6.39-25.81,6.39,0,0-3.23-3.38-5.2-8.27-.69-1.71-1.23-3.63-1.4-5.64-.21-2.44.1-5.03,1.28-7.63,4.93-10.83,26.33-5,35.09-12.44,0,0,3.98,8.29,2.11,17.02Z"/>
      <path fill="none" stroke="#2e2c3f" stroke-linecap="round" stroke-linejoin="round" stroke-width=".48" d="M391.62,379.64s-1.75-63.95,6.27-90.47c8.02-26.52,21.02-29.64,21.02-29.64"/>
    </g>
    <g>
      <path fill="#8f8b5e" d="M387.64,252.28s5.78-10.51,5.26-22.85c-.52-12.35-13.24-14.66-18.08-22.8,0,0-3.57,3.34-2.94,9.88.63,6.54,2.38,13.45,2.26,17.4-.11,3.95.28,13.95,13.5,18.37Z"/>
      <path fill="none" stroke="#2e2c3f" stroke-linecap="round" stroke-linejoin="round" stroke-width=".53" d="M378.42,221.37s8.35,17.15,9.22,30.91c.86,13.76,4.13,120.5,4.13,120.5"/>
    </g>
    <g>
      <path fill="#8f8b5e" d="M367.51,288.19c.36,4.15,1.07,8.4,1.68,12.29.68,4.37,1.27,8.3,1.17,11.11-.19,5.31.22,18.73,17.94,24.8,0,0,3.49-6.23,5.65-15.28,1.08-4.54,1.84-9.8,1.65-15.34-.58-16.59-17.64-19.83-24.03-30.81,0,0-4.84,4.45-4.06,13.24Z"/>
      <path fill="none" stroke="#2e2c3f" stroke-linecap="round" stroke-linejoin="round" stroke-width=".48" d="M378.55,299.53s8.54,14.97,9.74,36.86c1.2,21.89,1.29,36.65,1.29,36.65"/>
    </g>
    <g>
      <path fill="#8f8b5e" d="M383.35,348.12s-2.19-4.3-3.92-11.45c-1.74-7.16-3.41-9.63-11.07-11.5-7.65-1.87-11.26-5.31-11.26-5.31,0,0,1.49,10.82,9.05,18.2,7.55,7.38,17.2,10.07,17.2,10.07Z"/>
      <path fill="none" stroke="#2e2c3f" stroke-linecap="round" stroke-linejoin="round" stroke-width=".48" d="M364.8,328.2s9.72,12.38,18.55,19.93c8.83,7.54-.76,38.73-.76,38.73"/>
    </g>
    <g>
      <path fill="#8f8b5e" d="M393.28,361.69s3.54-3.27,9.95-6.89c6.41-3.62,8.34-5.91,8.05-13.78-.29-7.87,2.04-12.28,2.04-12.28,0,0-10,4.39-15.04,13.67-5.04,9.28-5,19.3-5,19.3Z"/>
      <path fill="none" stroke="#2e2c3f" stroke-linecap="round" stroke-linejoin="round" stroke-width=".48" d="M406.65,340.14s-3.37,5.32-7.07,10.62c-3.7,5.29-4.79,7.33-6.3,10.94s-5.94,29.32-5.94,29.32"/>
    </g>
  </g>
  <g>
    <g>
      <g>
        <path fill="#2e2c3f" d="M266.33,174.14s-8.82,13.26-5.21,26.76c3.39,12.68,7.63,42.26,10.13,53.82,6.29,29.1,11.56,6.73,26.45,26.94,14.89,20.21,12.46-31.12,12.46-31.12l-8.29-46.2s-7.45-19.5-7.97-20c-.52-.49-27.55-10.21-27.55-10.21Z"/>
        <path fill="#2e2c3f" d="M325.6,183.75s12.9-.02,13.35,24.98c.58,32.85,22.51,11.81,34.24,32.32,11.08,19.38-4.89,46.31-40.66,28.93-28.48-13.83-44.1-89.7-44.1-89.7l37.18,3.48Z"/>
        <path fill="#ffa776" d="M284.9,249.87s-.7,21.09-1.53,24.73c-.84,3.64,30.79-2.45,36.53-5.49,5.74-3.04,1.63-6.41,1.63-6.41,0,0-8.29-27.08-7.72-36.76.57-9.68-28.91,23.94-28.91,23.94Z"/>
        <path fill="#ffa776" d="M316.08,242.5s3.02,10.54,13.07,10.26c7.86-.22,4.58,7.34,2.81,8.01-.93.35-14.19,28.94-14.47,29.36s-38.22,9.69-39.62,9.55-7.59-17.42-7.59-17.42l1.12-12.36-.35-10.61s13.84-2.88,14.4-7.1,30.63-9.69,30.63-9.69Z"/>
        <g>
          <path fill="#ffa776" d="M292.72,252.8c12.8,0,21.65-14.69,24.73-28.08,3.08-13.39,1.88-59.92-26.24-57.85-28.12,2.08-26.33,32.44-24.88,46.08,1.45,13.64,9.06,39.85,26.39,39.85Z"/>
          <ellipse cx="295.17" cy="213.66" fill="#2e2c3f" rx="1.91" ry="2.79" transform="rotate(-15.25 295.126 213.633)"/>
          <ellipse cx="276.15" cy="216.7" fill="#2e2c3f" rx="2" ry="2.92" transform="rotate(-15.25 276.09 216.673)"/>
          <path fill="#2e2c3f" d="M288.92,206.47s6.21-4.42,12.36-2.04l-12.36,2.04Z"/>
          <path fill="#2e2c3f" d="M267.88,210.38s5.25-3.97,10.62-2.08l-10.62,2.08Z"/>
          <path fill="none" stroke="#2e2c3f" stroke-linecap="round" stroke-linejoin="round" stroke-width=".57" d="M286.96,251.76c1.79.67,3.7,1.04,5.76,1.04,6.33,0,12.3-3.86,17.09-9.38"/>
          <g>
            <path fill="none" stroke="#2e2c3f" stroke-linecap="round" stroke-linejoin="round" stroke-width=".57" d="M284.51,222.46l-.51,3.06c-.22,1.34.85,2.55,2.21,2.49l.64-.03"/>
            <path fill="#fff" d="M285.69,236.74s2.1.07,3.96-.24c1.93-.32,3.38-1.18,3.38-1.18,0,0-.54,2.96-3.24,3.33-2.78.38-4.11-1.91-4.11-1.91Z"/>
          </g>
          <path fill="#2e2c3f" d="M314.08,213.01c-1.83-2.46-2.1-11.27-11.81-12.46-17.67-2.17-19.66-12.33-19.66-12.33,0,0-11.2.11-16.99,17.11,0,0-12.01-37.75,15.22-38.28,0,0,9.45-7.68,25.31-6.03,28.79,3,24.65,40.88,15.52,50.28-1.49,1.54-7.58,1.71-7.58,1.71Z"/>
          <g>
            <path fill="#ffa776" d="M316.12,212.91s8.38-3.5,9.4,3.81c1.02,7.3-10.03,14.55-10.03,14.55l.63-18.36Z"/>
            <path fill="#2e2c3f" d="M317.42,217s8.32-3.19,1.9,6.46l-1.9-6.46Z"/>
          </g>
        </g>
      </g>
      <path fill="#fbb749" d="M246.96,265.4s-10.82,3.09-16.02,30.82c-4.1,21.89-13.49,53.2-18.73,56.95-5.25,3.75-11.99,18.73-4.87,29.22,0,0,13.47,5.06,27.91,5.06,1.4,0,15.17-49.08,15.17-49.08l4.96-46.27.56-19.67-8.99-7.02Z"/>
      <path fill="#fff" d="M329.15,252.76s14.94-.19,34.8,5.06c0,0-8.8,22.48-9.93,41.87-1.12,19.39,1.69,34,.56,45.52-1.12,11.52-7.59,45.52-4.78,69.41,0,0-89.08,1.69-106.78-7.87,0,0,1.4-28.1-.56-54.51-1.52-20.46-4.21-34.84-.28-48.33,3.93-13.49,4.78-38.5,4.78-38.5l24.1-6.11s3.15,29.23,17.21,29.43c19.67.28,40.89-35.97,40.89-35.97Z"/>
      <path fill="#fbb749" d="M335.01,252.94s-16.11,40.84-18.08,55.73c-1.97,14.89,4.21,56.2,3.93,72.5-.28,16.3-1.87,25.2-1.87,25.2,0,0,35.97,7.8,35.97-.75,0-1.69-5.99-52.27-1.78-83.46,4.21-31.19,25-56.37,10.77-64.35-10.77-6.04-28.94-4.87-28.94-4.87Z"/>
      <path fill="#fbb749" d="M264.29,261s-6.37,36.34-6.74,56.57c-.37,20.23-3,82.05-3,82.05,0,0-10.87.75-13.11-3,0,0,1.5-31.66.19-46.83-1.31-15.17-3.37-31.66-.94-44.96,2.44-13.3,6.28-39.43,6.28-39.43l17.33-4.4Z"/>
      <path fill="none" stroke="#2e2c3f" stroke-linecap="round" stroke-linejoin="round" stroke-width=".57" d="M241.62,349.79c-1.31-15.17-3.37-31.66-.94-44.96.98-5.37,2.19-12.83,3.29-19.81"/>
    </g>
    <g>
      <polygon fill="#ffe4d9" points="453.7 393.67 453.7 400.51 442.46 410.92 435.04 417.78 46.31 417.78 46.31 410.94 435.04 410.94 435.06 410.92 442.95 403.62 453.7 393.67"/>
      <polygon fill="#ffe4d9" points="30.73 410.92 30.73 403.61 449.37 403.61 469.27 385.17 469.27 392.48 449.37 410.92 30.73 410.92"/>
      <polygon fill="#ffe4d9" points="449.37 403.61 30.73 403.61 50.63 385.17 469.27 385.17 449.37 403.61"/>
      <polyline fill="none" stroke="#2e2c3f" stroke-linecap="round" stroke-linejoin="round" stroke-width=".57" points="469.27 385.17 449.37 403.61 30.73 403.61"/>
      <line x1="449.37" x2="30.73" y1="410.92" y2="410.92" fill="none" stroke="#2e2c3f" stroke-linecap="round" stroke-linejoin="round" stroke-width=".57"/>
    </g>
    <g>
      <polygon fill="#2e2c3f" points="267.73 392.88 225.18 397.89 186.42 385.57 267.73 383.74 267.73 392.88"/>
      <path fill="#2e2c3f" d="M225.18,397.89l-33.12-86.7c-.93-2.44-3.27-4.05-5.88-4.05h-109.11c-2.43,0-4.11,2.43-3.24,4.7l32.87,86.05h118.49Z"/>
      <ellipse cx="142.5" cy="355.81" fill="#fff" rx="4.98" ry="6.62" transform="rotate(-13.66 142.437 355.73)"/>
      <path fill="none" stroke="#fff" stroke-linecap="round" stroke-linejoin="round" stroke-width=".57" d="M88.74,311.55h94.21c2.29,0,4.33,1.41,5.15,3.54l28.26,73.66"/>
    </g>
    <g>
      <path fill="#2e2c3f" d="M315.24,392.97s-4.5-1.78-4.31-15.08c.19-13.3,16.3-1.69,16.3-1.69,0,0,3.65,10.3,3.47,11.61s-15.45,5.15-15.45,5.15Z"/>
      <polygon fill="#ffa776" points="313.84 362.35 279.84 366.42 282.37 385.11 329.57 383.7 326.76 365.72 313.84 362.35"/>
      <g>
        <path fill="#ffa776" d="M277.49,385.92c.5.84,6.17,2.09,9.15.34s5.11-.62,6.73-2.18c1.62-1.56-1.12-4.05-1.12-4.05,0,0-.75-6.91-3.27-7.94,0,0-2.34-5.32-5.42-5.79,0,0-3.18-5.32-5.98-5.14-2.8.19-10,5.98-10,5.98,0,0-5.32-.47-7.1,1.21-1.77,1.68-7.85,10.09-6.26,10.74,1.59.65,2.24.19,2.24.19,0,0-2.71,5.51-.65,6.17s6.07-1.77,6.07-1.77c0,0-2.34,2.99.75,3.36,3.08.37,6.73-2.52,6.73-2.52,0,0,3.74,3.46,8.13,1.4Z"/>
        <path fill="none" stroke="#2e2c3f" stroke-linecap="round" stroke-linejoin="round" stroke-width=".57" d="M283.57,366.3s-7.94,2.8-10.56,4.39c-2.62,1.59-11.12,12.98-11.12,12.98"/>
        <path fill="none" stroke="#2e2c3f" stroke-linecap="round" stroke-linejoin="round" stroke-width=".57" d="M267.59,367.15s-7.75,6.63-11.12,12.14"/>
        <path fill="none" stroke="#2e2c3f" stroke-linecap="round" stroke-linejoin="round" stroke-width=".57" d="M288.98,372.1s-6.54,2.71-11.12,6.26c-4.58,3.55-8.5,6.17-8.5,6.17"/>
        <path fill="none" stroke="#2e2c3f" stroke-linecap="round" stroke-linejoin="round" stroke-width=".57" d="M292.25,380.04s-1.99-.81-5.04.56c-3.05,1.37-6.6,4.3-9.72,5.32"/>
      </g>
    </g>
    <path fill="#fbb749" d="M363.95,257.81s6.74,0,10.96,28.66c4.21,28.66,21.36,89.64,7.02,99.47-14.33,9.83-66.69,7.02-66.69,7.02,0,0,2.57-.95,3.56-4.07,2.04-6.43,2.41-18.62-4.96-26.55l35.69-6.74-4.12-62.1,7.59-26.69,10.96-8.99Z"/>
    <polyline fill="none" stroke="#2e2c3f" stroke-linecap="round" stroke-linejoin="round" stroke-width=".57" points="313.84 362.35 349.52 355.6 345.4 293.5"/>
    <path fill="none" stroke="#2e2c3f" stroke-linecap="round" stroke-linejoin="round" stroke-width=".57" d="M349.52,355.6s6.74-2.62,17.98,0"/>
    <g>
      <g>
        <polygon fill="#2e2c3f" points="440.37 378.48 409.12 385.58 359.74 380.98 395.21 374.39 440.37 378.48"/>
        <path fill="#2e2c3f" d="M408.56,385.25l-48.83-4.27s-4.73,6.93-.27,12.81l49.28,4.16-.18-12.7Z"/>
        <polygon fill="#fff" points="439.6 379.45 408.83 385.65 407.39 389.18 408.58 396.67 412.49 396.02 439.75 391.17 439.6 379.45"/>
        <path fill="#2e2c3f" d="M408.75,397.95l31.68-6.34c.25-.11.4-.35.4-.62h0c0-.47-.49-.78-.92-.59l-30.67,5.93c-.73-1.33-2.48-5.44.32-10.23l31.32-6.43c.33-.14.48-.52.34-.85h0c-.14-.33-.52-.48-.85-.34l-31.7,6.59-.11.18c-3.96,6.54-.28,12.03-.12,12.26l.3.44Z"/>
      </g>
      <g>
        <polygon fill="#5d56d5" points="437.65 364.84 406.4 371.94 357.02 367.34 392.49 360.75 437.65 364.84"/>
        <path fill="#5d56d5" d="M405.85,371.61l-48.83-4.27s-4.73,6.93-.27,12.81l49.28,4.16-.18-12.7Z"/>
        <polygon fill="#fff" points="436.88 365.81 406.11 372.01 404.67 375.54 405.86 383.03 409.77 382.38 437.03 377.53 436.88 365.81"/>
        <g>
          <path fill="#5d56d5" d="M406.03,384.31l31.68-6.34c.25-.11.4-.35.4-.62h0c0-.47-.49-.78-.92-.59l-30.67,5.93c-.73-1.33-2.48-5.44.32-10.23l31.32-6.43c.33-.14.48-.52.34-.85h0c-.14-.33-.52-.48-.85-.34l-31.7,6.59-.11.18c-3.96,6.54-.28,12.03-.12,12.26l.3.44Z"/>
          <line x1="406.4" x2="357.02" y1="371.94" y2="367.34" fill="none" stroke="#2e2c3f" stroke-linecap="round" stroke-linejoin="round" stroke-width=".57"/>
        </g>
      </g>
      <g>
        <polygon fill="#ed5a4f" points="447.49 353.4 415.96 359.14 366.82 352.38 402.55 347.35 447.49 353.4"/>
        <path fill="#ed5a4f" d="M415.42,358.78l-48.6-6.4s-5.03,6.72-.83,12.78l49.05,6.31.37-12.7Z"/>
        <line x1="415.42" x2="366.82" y1="358.78" y2="352.38" fill="none" stroke="#2e2c3f" stroke-linecap="round" stroke-linejoin="round" stroke-width=".57"/>
        <polygon fill="#fff" points="446.68 354.34 415.66 359.19 414.07 362.65 414.94 370.19 418.87 369.71 446.31 366.06 446.68 354.34"/>
        <path fill="#ed5a4f" d="M415.05,371.47l31.93-4.95c.25-.09.42-.33.43-.6h0c.01-.47-.45-.8-.89-.63l-30.9,4.58c-.67-1.36-2.24-5.54.77-10.21l31.57-5.05c.33-.13.5-.5.37-.84h0c-.13-.33-.5-.5-.84-.37l-31.96,5.2-.11.17c-4.25,6.37-.8,12.01-.65,12.25l.28.45Z"/>
      </g>
    </g>
  </g>
  <path fill="none" stroke="#2e2c3f" stroke-linecap="round" stroke-linejoin="round" stroke-width=".57" d="M288.43,320.45s-1.38-10.56,15.49-27.43c8.6-8.6,18.82-27.54,17.67-42.92"/>
  <path fill="none" stroke="#2e2c3f" stroke-linecap="round" stroke-linejoin="round" stroke-width=".57" d="M288.49,322.17s-15.32-30.07-15.55-45.68c-.23-15.61,7.57-21,7.57-21"/>
  <g>
    <rect width="18.84" height="27.02" x="280.39" y="322.01" fill="#ed5a4f" transform="rotate(-6.4 289.765 335.392)"/>
    <rect width="3.06" height="2.2" x="286.66" y="319.9" fill="#2e2c3f" transform="rotate(-6.4 288.15 320.948)"/>
    <rect width="9.16" height=".54" x="285.54" y="337.97" fill="#fff" transform="rotate(-6.4 290.057 338.19)"/>
    <rect width="9.16" height=".54" x="285.89" y="341.06" fill="#fff" transform="rotate(-6.4 290.424 341.26)"/>
    <rect width="5.54" height="5.54" x="286.48" y="327.73" fill="#fff" transform="rotate(-6.4 289.146 330.424)"/>
  </g>
  <g>
    <path fill="#9f9fe6" d="M243.03,95.33v38.99s17.84-11.23,17.84-11.23h45.27c11.3,0,20.45-9.14,20.45-20.43,0-11.3-9.14-20.45-20.45-20.45h-49.98c-7.26,0-13.13,5.88-13.13,13.11Z"/>
    <g>
      <circle cx="260.86" cy="102.55" r="3.4" fill="#fff"/>
      <circle cx="279.86" cy="102.55" r="3.4" fill="#fff"/>
      <circle cx="298.85" cy="102.55" r="3.4" fill="#fff"/>
    </g>
  </g>
</svg>
